<svg xmlns="http://www.w3.org/2000/svg" xmlns:xlink="http://www.w3.org/1999/xlink" id="body_1" viewBox="0 0 16 16" width="16" height="16">

<g transform="matrix(0.03125 0 0 0.03125 0 0)">
	<g transform="matrix(1.059524 0 0 1.059524 0 0)">
	</g>
    <path transform="matrix(1.059524 0 0 1.059524 0 0)"  d="M434.983 159.868L208.225 159.868C 200.669 159.867 193.45 156.74 188.282 151.228L188.282 151.228L159.057 120.07C 153.88 114.553 146.65 111.427 139.084 111.436L139.084 111.436L43.88902 111.436C 28.78701 111.436 16.54402 123.679 16.54402 138.781L16.54402 138.781L16.54402 443.75C 16.54402 458.869 28.80001 471.125 43.91901 471.125L43.91901 471.125L434.93 471.125C 450.049 471.125 462.305 458.869 462.305 443.75L462.305 443.75L462.305 187.214C 462.305 172.12 450.076 159.881 434.983 159.868z" stroke="none" fill="#EAB54E" fill-rule="nonzero" />
	<g transform="matrix(1.059524 0 0 1.059524 0 0)">
	</g>
    <path transform="matrix(1.059524 0 0 1.059524 0 0)"  d="M81.995 12.11L414.321 12.11L414.321 309.665L81.995 309.665L81.995 12.11z" stroke="none" fill="#DBD8DD" fill-rule="nonzero" />
	<g transform="matrix(1.059524 0 0 1.059524 0 0)">
	</g>
    <path transform="matrix(1.059524 0 0 1.059524 0 0)"  d="M64.551 39.738L386.758 39.738L386.758 327.18L64.55099 327.18L64.551 39.738z" stroke="none" fill="#EEEFEE" fill-rule="nonzero" />
	<g transform="matrix(1.059524 0 0 1.059524 0 0)">
	</g>
    <path transform="matrix(1.059524 0 0 1.059524 0 0)"  d="M100.984 76.289L350.337 76.289L350.337 89.372L100.984 89.372L100.984 76.289z" stroke="none" fill="#DBD8DD" fill-rule="nonzero" />
	<g transform="matrix(1.059524 0 0 1.059524 0 0)">
	</g>
    <path transform="matrix(1.059524 0 0 1.059524 0 0)"  d="M100.984 117.849L350.337 117.849L350.337 130.932L100.984 130.932L100.984 117.849z" stroke="none" fill="#DBD8DD" fill-rule="nonzero" />
	<g transform="matrix(1.059524 0 0 1.059524 0 0)">
	</g>
    <path transform="matrix(1.059524 0 0 1.059524 0 0)"  d="M100.984 159.409L350.337 159.409L350.337 172.492L100.984 172.492L100.984 159.409z" stroke="none" fill="#DBD8DD" fill-rule="nonzero" />
	<g transform="matrix(1.059524 0 0 1.059524 0 0)">
	</g>
    <path transform="matrix(1.059524 0 0 1.059524 0 0)"  d="M455.905 203.738L208.196 203.738C 200.659 203.738 193.456 206.849 188.288 212.336L188.288 212.336L159.051 243.376C 153.884 248.863 146.681 251.974 139.143 251.974L139.143 251.974L27.34599 251.974C 12.24399 251.975 0.0009937286 264.217 -7.629395E-06 279.319C -7.629395E-06 280.15 0.03799237 280.98 0.1129924 281.807L0.1129924 281.807L14.25699 446.231C 15.54299 460.328 27.36399 471.119 41.51999 471.119L41.51999 471.119L437.317 471.119C 451.474 471.119 463.296 460.325 464.58 446.226L464.58 446.226L483.12 233.576C 484.497 218.537 473.421 205.229 458.382 203.852C 457.558 203.777 456.732 203.739 455.905 203.738z" stroke="none" fill="#F6C863" fill-rule="nonzero" />
</g>
</svg>