<svg xmlns="http://www.w3.org/2000/svg"
     xmlns:xlink="http://www.w3.org/1999/xlink" viewBox="0 0 16 16" width="16" height="16">
    <g id="surface1">
        <path style=" stroke:none;fill-rule:nonzero;fill:rgb(91.372549%,91.372549%,87.843137%);fill-opacity:1;" d="M 10.566406 0 L 2.273438 0 C 2.042969 0 1.855469 0.1875 1.855469 0.550781 L 1.855469 15.714844 C 1.855469 15.8125 2.042969 16 2.273438 16 L 13.726562 16 C 13.957031 16 14.144531 15.8125 14.144531 15.714844 L 14.144531 3.707031 C 14.144531 3.507812 14.117188 3.445312 14.070312 3.398438 L 10.746094 0.0742188 C 10.699219 0.0273438 10.632812 0 10.566406 0 Z M 10.566406 0z"/>
        <path style=" stroke:none;fill-rule:nonzero;fill:rgb(85.098039%,84.313725%,79.215686%);fill-opacity:1;" d="M 10.714844 0.0429688 L 10.714844 3.429688 L 14.101562 3.429688 Z M 10.714844 0.0429688z"/>
        <path style=" stroke:none;fill-rule:nonzero;fill:rgb(59.215686%,46.666667%,65.882353%);fill-opacity:1;" d="M 13.726562 16 L 2.273438 16 C 2.042969 16 1.855469 15.8125 1.855469 15.582031 L 1.855469 11.144531 L 14.144531 11.144531 L 14.144531 15.582031 C 14.144531 15.8125 13.957031 16 13.726562 16 Z M 13.726562 16z"/>
<!--        <path style=" stroke:none;fill-rule:nonzero;fill:rgb(100%,100%,100%);fill-opacity:1;" d="M 4.863281 12.207031 L 4.863281 14.449219 C 4.863281 14.582031 4.839844 14.695312 4.789062 14.789062 C 4.738281 14.882812 4.671875 14.957031 4.589844 15.011719 C 4.507812 15.066406 4.410156 15.105469 4.300781 15.128906 C 4.195312 15.152344 4.082031 15.164062 3.96875 15.164062 C 3.910156 15.164062 3.84375 15.15625 3.765625 15.144531 C 3.691406 15.132812 3.609375 15.113281 3.527344 15.089844 C 3.445312 15.066406 3.367188 15.039062 3.292969 15.007812 C 3.21875 14.976562 3.152344 14.941406 3.101562 14.902344 L 3.300781 14.585938 C 3.328125 14.601562 3.363281 14.621094 3.410156 14.640625 C 3.460938 14.660156 3.511719 14.679688 3.570312 14.695312 C 3.628906 14.710938 3.6875 14.726562 3.75 14.742188 C 3.8125 14.753906 3.871094 14.757812 3.925781 14.757812 C 4.0625 14.757812 4.171875 14.734375 4.253906 14.679688 C 4.335938 14.625 4.382812 14.535156 4.386719 14.410156 L 4.386719 12.207031 Z M 4.863281 12.207031 "/>-->
<!--        <path style=" stroke:none;fill-rule:nonzero;fill:rgb(100%,100%,100%);fill-opacity:1;" d="M 7.195312 14.355469 C 7.195312 14.457031 7.175781 14.558594 7.128906 14.65625 C 7.085938 14.753906 7.027344 14.839844 6.949219 14.914062 C 6.871094 14.988281 6.773438 15.046875 6.660156 15.09375 C 6.546875 15.136719 6.414062 15.160156 6.269531 15.160156 C 6.207031 15.160156 6.140625 15.15625 6.074219 15.148438 C 6.007812 15.140625 5.941406 15.128906 5.875 15.117188 C 5.808594 15.101562 5.742188 15.078125 5.679688 15.050781 C 5.621094 15.023438 5.566406 14.992188 5.523438 14.949219 L 5.605469 14.613281 C 5.640625 14.636719 5.6875 14.65625 5.742188 14.675781 C 5.800781 14.695312 5.859375 14.714844 5.917969 14.730469 C 5.976562 14.746094 6.039062 14.761719 6.097656 14.769531 C 6.15625 14.78125 6.210938 14.789062 6.265625 14.789062 C 6.425781 14.789062 6.546875 14.75 6.628906 14.675781 C 6.714844 14.601562 6.757812 14.492188 6.757812 14.347656 C 6.757812 14.257812 6.726562 14.183594 6.667969 14.121094 C 6.609375 14.054688 6.53125 14 6.441406 13.949219 C 6.351562 13.898438 6.257812 13.847656 6.152344 13.796875 C 6.046875 13.746094 5.949219 13.6875 5.859375 13.617188 C 5.769531 13.546875 5.691406 13.46875 5.632812 13.375 C 5.574219 13.28125 5.542969 13.164062 5.542969 13.023438 C 5.542969 12.894531 5.566406 12.78125 5.613281 12.683594 C 5.660156 12.582031 5.722656 12.5 5.800781 12.429688 C 5.882812 12.359375 5.972656 12.308594 6.078125 12.273438 C 6.183594 12.234375 6.296875 12.21875 6.414062 12.21875 C 6.535156 12.21875 6.65625 12.226562 6.777344 12.25 C 6.898438 12.273438 6.996094 12.308594 7.074219 12.359375 C 7.058594 12.390625 7.039062 12.429688 7.019531 12.46875 C 7 12.507812 6.980469 12.546875 6.960938 12.582031 C 6.941406 12.617188 6.925781 12.648438 6.914062 12.671875 C 6.902344 12.695312 6.894531 12.707031 6.890625 12.710938 C 6.875 12.703125 6.855469 12.691406 6.835938 12.679688 C 6.816406 12.664062 6.789062 12.652344 6.753906 12.640625 C 6.71875 12.625 6.667969 12.617188 6.609375 12.613281 C 6.550781 12.605469 6.472656 12.609375 6.378906 12.617188 C 6.324219 12.621094 6.277344 12.636719 6.230469 12.660156 C 6.183594 12.683594 6.140625 12.714844 6.105469 12.753906 C 6.066406 12.789062 6.039062 12.828125 6.019531 12.875 C 5.996094 12.921875 5.988281 12.964844 5.988281 13.007812 C 5.988281 13.109375 6.015625 13.195312 6.078125 13.257812 C 6.136719 13.324219 6.210938 13.378906 6.300781 13.425781 C 6.386719 13.472656 6.484375 13.519531 6.589844 13.566406 C 6.691406 13.613281 6.789062 13.667969 6.878906 13.734375 C 6.96875 13.796875 7.042969 13.878906 7.105469 13.976562 C 7.164062 14.074219 7.195312 14.199219 7.195312 14.355469 Z M 7.195312 14.355469 "/>-->
<!--        <path style=" stroke:none;fill-rule:nonzero;fill:rgb(100%,100%,100%);fill-opacity:1;" d="M 10.023438 13.691406 C 10.023438 13.933594 9.992188 14.144531 9.933594 14.332031 C 9.871094 14.515625 9.785156 14.667969 9.675781 14.792969 C 9.570312 14.914062 9.445312 15.007812 9.300781 15.070312 C 9.152344 15.132812 8.996094 15.164062 8.824219 15.164062 C 8.652344 15.164062 8.496094 15.132812 8.351562 15.070312 C 8.207031 15.007812 8.078125 14.914062 7.972656 14.792969 C 7.863281 14.667969 7.777344 14.515625 7.71875 14.332031 C 7.65625 14.144531 7.625 13.933594 7.625 13.691406 C 7.625 13.449219 7.65625 13.234375 7.71875 13.050781 C 7.777344 12.867188 7.863281 12.714844 7.972656 12.59375 C 8.078125 12.46875 8.207031 12.375 8.351562 12.3125 C 8.496094 12.25 8.652344 12.21875 8.824219 12.21875 C 8.996094 12.21875 9.152344 12.25 9.300781 12.3125 C 9.445312 12.375 9.570312 12.46875 9.675781 12.59375 C 9.785156 12.714844 9.871094 12.867188 9.933594 13.050781 C 9.992188 13.234375 10.023438 13.449219 10.023438 13.691406 Z M 8.8125 14.78125 C 8.910156 14.78125 9 14.761719 9.089844 14.722656 C 9.175781 14.683594 9.253906 14.625 9.324219 14.539062 C 9.390625 14.453125 9.445312 14.339844 9.484375 14.199219 C 9.523438 14.058594 9.542969 13.890625 9.546875 13.691406 C 9.542969 13.496094 9.523438 13.328125 9.484375 13.191406 C 9.449219 13.054688 9.398438 12.941406 9.328125 12.855469 C 9.261719 12.765625 9.1875 12.703125 9.101562 12.664062 C 9.019531 12.625 8.929688 12.605469 8.835938 12.605469 C 8.738281 12.605469 8.648438 12.621094 8.558594 12.660156 C 8.472656 12.695312 8.394531 12.757812 8.324219 12.84375 C 8.257812 12.929688 8.203125 13.042969 8.164062 13.183594 C 8.125 13.320312 8.105469 13.488281 8.101562 13.691406 C 8.105469 13.886719 8.125 14.050781 8.160156 14.191406 C 8.199219 14.328125 8.25 14.441406 8.316406 14.527344 C 8.386719 14.613281 8.460938 14.679688 8.542969 14.71875 C 8.628906 14.757812 8.71875 14.78125 8.8125 14.78125 Z M 8.8125 14.78125 "/>-->
<!--        <path style=" stroke:none;fill-rule:nonzero;fill:rgb(100%,100%,100%);fill-opacity:1;" d="M 12.765625 12.265625 L 12.765625 15.144531 L 12.289062 15.144531 L 11.160156 13.160156 L 11.160156 15.144531 L 10.683594 15.144531 L 10.683594 12.265625 L 11.160156 12.265625 L 12.289062 14.25 L 12.289062 12.265625 Z M 12.765625 12.265625 "/>-->
        <path style=" stroke:none;fill-rule:nonzero;fill:rgb(59.215686%,46.666667%,65.882353%);fill-opacity:1;" d="M 5.570312 5.429688 L 5.570312 4.285156 C 5.570312 4.128906 5.699219 4 5.855469 4 C 6.015625 4 6.144531 3.871094 6.144531 3.714844 C 6.144531 3.554688 6.015625 3.429688 5.855469 3.429688 C 5.382812 3.429688 5 3.8125 5 4.285156 L 5 5.429688 C 5 5.742188 4.742188 6 4.429688 6 C 4.269531 6 4.144531 6.128906 4.144531 6.285156 C 4.144531 6.445312 4.269531 6.570312 4.429688 6.570312 C 4.742188 6.570312 5 6.828125 5 7.144531 L 5 8.285156 C 5 8.757812 5.382812 9.144531 5.855469 9.144531 C 6.015625 9.144531 6.144531 9.015625 6.144531 8.855469 C 6.144531 8.699219 6.015625 8.570312 5.855469 8.570312 C 5.699219 8.570312 5.570312 8.441406 5.570312 8.285156 L 5.570312 7.144531 C 5.570312 6.800781 5.417969 6.496094 5.175781 6.285156 C 5.417969 6.074219 5.570312 5.769531 5.570312 5.429688 Z M 5.570312 5.429688z"/>
        <path style=" stroke:none;fill-rule:nonzero;fill:rgb(59.215686%,46.666667%,65.882353%);fill-opacity:1;" d="M 8.285156 5.285156 C 8.285156 5.523438 8.09375 5.714844 7.855469 5.714844 C 7.621094 5.714844 7.429688 5.523438 7.429688 5.285156 C 7.429688 5.050781 7.621094 4.855469 7.855469 4.855469 C 8.09375 4.855469 8.285156 5.050781 8.285156 5.285156 Z M 8.285156 5.285156z"/>
        <path style=" stroke:none;fill-rule:nonzero;fill:rgb(59.215686%,46.666667%,65.882353%);fill-opacity:1;" d="M 11.285156 6 C 10.96875 6 10.714844 5.742188 10.714844 5.429688 L 10.714844 4.285156 C 10.714844 3.8125 10.328125 3.429688 9.855469 3.429688 C 9.699219 3.429688 9.570312 3.554688 9.570312 3.714844 C 9.570312 3.871094 9.699219 4 9.855469 4 C 10.015625 4 10.144531 4.128906 10.144531 4.285156 L 10.144531 5.429688 C 10.144531 5.769531 10.296875 6.074219 10.539062 6.285156 C 10.296875 6.496094 10.144531 6.800781 10.144531 7.144531 L 10.144531 8.285156 C 10.144531 8.441406 10.015625 8.570312 9.855469 8.570312 C 9.699219 8.570312 9.570312 8.699219 9.570312 8.855469 C 9.570312 9.015625 9.699219 9.144531 9.855469 9.144531 C 10.328125 9.144531 10.714844 8.757812 10.714844 8.285156 L 10.714844 7.144531 C 10.714844 6.828125 10.96875 6.570312 11.285156 6.570312 C 11.445312 6.570312 11.570312 6.445312 11.570312 6.285156 C 11.570312 6.128906 11.445312 6 11.285156 6 Z M 11.285156 6z"/>
        <path style=" stroke:none;fill-rule:nonzero;fill:rgb(59.215686%,46.666667%,65.882353%);fill-opacity:1;" d="M 7.855469 6.855469 C 7.699219 6.855469 7.570312 6.984375 7.570312 7.144531 L 7.570312 8 C 7.570312 8.15625 7.699219 8.285156 7.855469 8.285156 C 8.015625 8.285156 8.144531 8.15625 8.144531 8 L 8.144531 7.144531 C 8.144531 6.984375 8.015625 6.855469 7.855469 6.855469 Z M 7.855469 6.855469z"/>
    </g>
</svg>
