<?xml version="1.0" encoding="UTF-8"?>
<svg xmlns="http://www.w3.org/2000/svg" xmlns:xlink="http://www.w3.org/1999/xlink" width="16" height="16"
     viewBox="0 0 16 16" version="1.1">
    <g id="surface1">
        <path style=" stroke:none;fill-rule:nonzero;fill:rgb(97.254902%,96.470588%,97.647059%);fill-opacity:1;"
              d="M 13.980469 3.921875 L 13.980469 14.582031 C 13.980469 15.367188 13.347656 16 12.5625 16 L 1.445312 16 C 0.664062 16 0.0273438 15.367188 0.0273438 14.582031 L 0.0273438 1.417969 C 0.0273438 0.632812 0.664062 0 1.445312 0 L 10.058594 0 Z M 13.980469 3.921875z"/>
        <path style=" stroke:none;fill-rule:nonzero;fill:rgb(25.098039%,43.921569%,57.647059%);fill-opacity:1;"
              d="M 11.988281 5.601562 L 3.722656 5.601562 C 3.589844 5.601562 3.480469 5.492188 3.480469 5.359375 C 3.480469 5.226562 3.589844 5.117188 3.722656 5.117188 L 11.988281 5.117188 C 12.121094 5.117188 12.230469 5.226562 12.230469 5.359375 C 12.230469 5.492188 12.121094 5.601562 11.988281 5.601562 Z M 11.988281 5.601562z"/>
        <path style=" stroke:none;fill-rule:nonzero;fill:rgb(25.098039%,43.921569%,57.647059%);fill-opacity:1;"
              d="M 11.988281 8.988281 L 2.023438 8.988281 C 1.886719 8.988281 1.78125 8.878906 1.78125 8.746094 C 1.78125 8.613281 1.886719 8.503906 2.023438 8.503906 L 11.988281 8.503906 C 12.121094 8.503906 12.230469 8.613281 12.230469 8.746094 C 12.230469 8.878906 12.121094 8.988281 11.988281 8.988281 Z M 11.988281 8.988281z"/>
        <path style=" stroke:none;fill-rule:nonzero;fill:rgb(25.098039%,43.921569%,57.647059%);fill-opacity:1;"
              d="M 9.199219 12.363281 L 2.023438 12.363281 C 1.886719 12.363281 1.78125 12.253906 1.78125 12.121094 C 1.78125 11.988281 1.886719 11.878906 2.023438 11.878906 L 9.199219 11.878906 C 9.335938 11.878906 9.441406 11.988281 9.441406 12.121094 C 9.441406 12.253906 9.335938 12.363281 9.199219 12.363281 Z M 9.199219 12.363281z"/>
        <path style=" stroke:none;fill-rule:nonzero;fill:rgb(25.098039%,43.921569%,57.647059%);fill-opacity:1;"
              d="M 3.570312 14.503906 L 2.023438 14.503906 C 1.886719 14.503906 1.78125 14.398438 1.78125 14.265625 C 1.78125 14.128906 1.886719 14.023438 2.023438 14.023438 L 3.570312 14.023438 C 3.707031 14.023438 3.8125 14.128906 3.8125 14.265625 C 3.8125 14.398438 3.707031 14.503906 3.570312 14.503906 Z M 3.570312 14.503906z"/>
        <path style=" stroke:none;fill-rule:nonzero;fill:rgb(86.666667%,38.823529%,43.137255%);fill-opacity:1;"
              d="M 14.71875 12.082031 L 15.832031 10.972656 C 16.019531 10.785156 16.019531 10.480469 15.832031 10.292969 L 15.210938 9.671875 C 15.023438 9.484375 14.71875 9.484375 14.53125 9.671875 L 13.417969 10.78125 L 12.308594 9.671875 C 12.121094 9.484375 11.816406 9.484375 11.628906 9.671875 L 11.007812 10.292969 C 10.820312 10.480469 10.820312 10.785156 11.007812 10.972656 L 12.121094 12.082031 L 11.007812 13.195312 C 10.820312 13.382812 10.820312 13.683594 11.007812 13.871094 L 11.628906 14.492188 C 11.816406 14.679688 12.121094 14.679688 12.308594 14.492188 L 13.417969 13.382812 L 14.53125 14.492188 C 14.71875 14.679688 15.023438 14.679688 15.210938 14.492188 L 15.832031 13.871094 C 16.019531 13.683594 16.019531 13.382812 15.832031 13.195312 Z M 14.71875 12.082031z"/>
    </g>
</svg>
