<svg xmlns="http://www.w3.org/2000/svg"
     xmlns:xlink="http://www.w3.org/1999/xlink" viewBox="0 0 16 16" width="16" height="16">

    <g transform="matrix(0.03125 0 0 0.03125 0 0)">
        <g transform="matrix(1.030181 0 0 1.030181 0 0)">
        </g>
        <path transform="matrix(1.030181 0 0 1.030181 0 0)"
              d="M386 144.047L386 408C 386 430.091 368.091 448 346 448L346 448L71 448C 48.909 448 31 430.091 31 408L31 408L31 40C 31 17.909 48.909 0 71 0L71 0L242.197 0C 246.744 0 251.184 1.032 255.204 2.966C 258.229 4.421 381.825 128.375 383.294 131.595C 385.061 135.468 386 139.709 386 144.047z"
              stroke="none" fill="#F9F8F9" fill-rule="nonzero"/>
        <g transform="matrix(1.030181 0 0 1.030181 0 0)">
        </g>
        <path transform="matrix(1.030181 0 0 1.030181 0 0)"
              d="M386 144.05L386 161.64L281.68 161.64C 250.23 161.64 224.64 136.02 224.64 104.54L224.64 104.54L224.64 0L242.2 0C 246.544 0 250.793 0.944 254.672 2.719C 257.9 4.196 381.894 128.474 383.368 131.756C 385.087 135.585 386 139.77 386 144.05z"
              stroke="none" fill="#E3E0E4" fill-rule="nonzero"/>
        <g transform="matrix(1.030181 0 0 1.030181 0 0)">
        </g>
        <path transform="matrix(1.030181 0 0 1.030181 0 0)"
              d="M386 144.05L386 161.64L281.68 161.64C 250.23 161.64 224.64 136.02 224.64 104.54L224.64 104.54L224.64 0L242.2 0C 250.16 0 257.8 3.17 263.43 8.81L263.43 8.81L377.24 122.86C 382.85 128.48 386 136.1 386 144.05z"
              stroke="none" fill="#E3E0E4" fill-rule="nonzero"/>
        <g transform="matrix(1.030181 0 0 1.030181 0 0)">
        </g>
        <path transform="matrix(1.030181 0 0 1.030181 0 0)"
              d="M386 144.05L386 161.64L281.68 161.64C 250.23 161.64 224.64 136.02 224.64 104.54L224.64 104.54L224.64 0L242.2 0C 246.544 0 250.793 0.944 254.672 2.719C 257.9 4.196 381.894 128.474 383.368 131.756C 385.087 135.585 386 139.77 386 144.05z"
              stroke="none" fill="#E3E0E4" fill-rule="nonzero"/>
        <g transform="matrix(1.030181 0 0 1.030181 0 0)">
        </g>
        <path transform="matrix(1.030181 0 0 1.030181 0 0)"
              d="M101 448L71 448C 48.91 448 31 430.09 31 408L31 408L31 40C 31 17.91 48.91 0 71 0L71 0L101 0C 78.91 0 61 17.91 61 40L61 40L61 408C 61 430.09 78.91 448 101 448z"
              stroke="none" fill="#E3E0E4" fill-rule="nonzero"/>
        <g transform="matrix(1.030181 0 0 1.030181 0 0)">
        </g>
        <path transform="matrix(1.030181 0 0 1.030181 0 0)"
              d="M212.108 150L88.408 150C 84.26601 150 80.908 146.642 80.908 142.5C 80.908 138.358 84.26601 135 88.408 135L88.408 135L212.108 135C 216.25 135 219.608 138.358 219.608 142.5C 219.608 146.642 216.25 150 212.108 150z"
              stroke="none" fill="#A29AA5" fill-rule="nonzero"/>
        <g transform="matrix(1.030181 0 0 1.030181 0 0)">
        </g>
        <path transform="matrix(1.030181 0 0 1.030181 0 0)"
              d="M212.108 330L88.408 330C 84.26601 330 80.908 326.642 80.908 322.5C 80.908 318.358 84.26601 315 88.408 315L88.408 315L212.108 315C 216.25 315 219.608 318.358 219.608 322.5C 219.608 326.642 216.25 330 212.108 330z"
              stroke="none" fill="#A29AA5" fill-rule="nonzero"/>
        <g transform="matrix(1.030181 0 0 1.030181 0 0)">
        </g>
        <path transform="matrix(1.030181 0 0 1.030181 0 0)"
              d="M310.408 210L86.40799 210C 82.26599 210 78.90799 206.642 78.90799 202.5C 78.90799 198.358 82.26599 195 86.40799 195L86.40799 195L310.408 195C 314.55 195 317.908 198.358 317.908 202.5C 317.908 206.642 314.55 210 310.408 210z"
              stroke="none" fill="#A29AA5" fill-rule="nonzero"/>
        <g transform="matrix(1.030181 0 0 1.030181 0 0)">
        </g>
        <path transform="matrix(1.030181 0 0 1.030181 0 0)"
              d="M310.408 270L86.40799 270C 82.26599 270 78.90799 266.642 78.90799 262.5C 78.90799 258.358 82.26599 255 86.40799 255L86.40799 255L310.408 255C 314.55 255 317.908 258.358 317.908 262.5C 317.908 266.642 314.55 270 310.408 270z"
              stroke="none" fill="#A29AA5" fill-rule="nonzero"/>
        <g transform="matrix(1.030181 0 0 1.030181 0 0)">
        </g>
        <path transform="matrix(1.030181 0 0 1.030181 0 0)"
              d="M383.31 131.64L281.68 131.64C 266.75 131.64 254.64 119.5 254.64 104.54L254.64 104.54L254.64 2.720001C 257.88 4.180001 260.87 6.240001 263.43 8.810001L263.43 8.810001L377.24 122.86C 379.79 125.42 381.85 128.4 383.31 131.64z"
              stroke="none" fill="#A29AA5" fill-rule="nonzero"/>
        <g transform="matrix(1.030181 0 0 1.030181 0 0)">
        </g>
        <path transform="matrix(25 0 0 25 0 0)"
                stroke="none" fill="red" fill-rule="nonzero"
              d="M 14.71875 12.082031 L 15.832031 10.972656 C 16.019531 10.785156 16.019531 10.480469 15.832031 10.292969 L 15.210938 9.671875 C 15.023438 9.484375 14.71875 9.484375 14.53125 9.671875 L 13.417969 10.78125 L 12.308594 9.671875 C 12.121094 9.484375 11.816406 9.484375 11.628906 9.671875 L 11.007812 10.292969 C 10.820312 10.480469 10.820312 10.785156 11.007812 10.972656 L 12.121094 12.082031 L 11.007812 13.195312 C 10.820312 13.382812 10.820312 13.683594 11.007812 13.871094 L 11.628906 14.492188 C 11.816406 14.679688 12.121094 14.679688 12.308594 14.492188 L 13.417969 13.382812 L 14.53125 14.492188 C 14.71875 14.679688 15.023438 14.679688 15.210938 14.492188 L 15.832031 13.871094 C 16.019531 13.683594 16.019531 13.382812 15.832031 13.195312 Z M 14.71875 12.082031z"

        />

        <!--        <path transform="matrix(1.030181 0 0 1.030181 0 0)"-->
<!--              d="M262.978 395.5C 262.978 339.4431 308.426 294 364.489 294C 420.552 294 466 339.4431 466 395.5C 466 451.5569 420.552 497 364.489 497C 308.426 497 262.978 451.5569 262.978 395.5z"-->
<!--              stroke="none" fill="red" fill-rule="nonzero"/>-->
<!--        <g transform="matrix(1.030181 0 0 1.030181 0 0)">-->
<!--        </g>-->
<!--        <path transform="matrix(1.030181 0 0 1.030181 0 0)"-->
<!--              d="M445.57 456.57C 427.05 481.13 397.62 497 364.49 497C 308.43 497 262.98 451.56 262.98 395.5C 262.98 362.37 278.85 332.95 303.41 314.43C 290.58 331.42 282.98 352.57 282.98 375.5C 282.98 431.56 328.43 477 384.49 477C 407.42 477 428.57 469.4 445.57 456.57z"-->
<!--              stroke="none" fill="" fill-rule="nonzero"/>-->
<!--       -->
       </g>
</svg>